<mxfile host="Electron" modified="2024-06-25T10:26:47.059Z" agent="Mozilla/5.0 (Windows NT 10.0; Win64; x64) AppleWebKit/537.36 (KHTML, like Gecko) draw.io/23.1.5 Chrome/120.0.6099.109 Electron/28.1.0 Safari/537.36" etag="Psp1RRVLaXywgrZzDd0g" version="23.1.5" type="device">
  <diagram name="Page-1" id="QEGEIfdbJsdVj-Z1kgoe">
    <mxGraphModel dx="1044" dy="1926" grid="1" gridSize="10" guides="1" tooltips="1" connect="1" arrows="1" fold="1" page="1" pageScale="1" pageWidth="827" pageHeight="1169" math="0" shadow="0">
      <root>
        <mxCell id="0" />
        <mxCell id="1" parent="0" />
        <mxCell id="vG42X3gjWeg6bdhdIkWt-4" value="" style="rounded=0;whiteSpace=wrap;html=1;" parent="1" vertex="1">
          <mxGeometry x="400" y="-240" width="440" height="560" as="geometry" />
        </mxCell>
        <mxCell id="6J6sEnOnziqoshQyqQdG-2" value="" style="endArrow=none;html=1;rounded=0;exitX=0;exitY=1;exitDx=0;exitDy=0;entryX=0;entryY=1;entryDx=0;entryDy=0;" parent="1" source="HJ6NpnuFAOiJMe3mfY7o-8" target="6J6sEnOnziqoshQyqQdG-1" edge="1">
          <mxGeometry width="50" height="50" relative="1" as="geometry">
            <mxPoint x="692.5" y="-40" as="sourcePoint" />
            <mxPoint x="742.5" y="-90" as="targetPoint" />
          </mxGeometry>
        </mxCell>
        <mxCell id="HJ6NpnuFAOiJMe3mfY7o-32" value="" style="ellipse;whiteSpace=wrap;html=1;aspect=fixed;" parent="1" vertex="1">
          <mxGeometry x="30" y="30" width="840" height="840" as="geometry" />
        </mxCell>
        <mxCell id="7TM_OdGEtOvxObzj1Llh-1" value="" style="ellipse;whiteSpace=wrap;html=1;aspect=fixed;" parent="1" vertex="1">
          <mxGeometry x="40" y="40" width="820" height="820" as="geometry" />
        </mxCell>
        <mxCell id="b78YxiTidQIfgBdO-1Q7-6" value="15" style="ellipse;whiteSpace=wrap;html=1;aspect=fixed;fillColor=#ffe6cc;strokeColor=#d79b00;" parent="1" vertex="1">
          <mxGeometry x="280" y="676.9" width="80" height="80" as="geometry" />
        </mxCell>
        <mxCell id="b78YxiTidQIfgBdO-1Q7-2" value="33" style="rounded=0;whiteSpace=wrap;html=1;fillColor=#f5f5f5;strokeColor=#666666;fontColor=#333333;rotation=-5;align=right;verticalAlign=top;" parent="1" vertex="1">
          <mxGeometry x="474" y="647.93" width="200" height="200" as="geometry" />
        </mxCell>
        <mxCell id="7TM_OdGEtOvxObzj1Llh-2" value="" style="endArrow=none;html=1;rounded=0;" parent="1" edge="1">
          <mxGeometry width="50" height="50" relative="1" as="geometry">
            <mxPoint x="840" y="320" as="sourcePoint" />
            <mxPoint x="1060" y="320" as="targetPoint" />
          </mxGeometry>
        </mxCell>
        <mxCell id="7TM_OdGEtOvxObzj1Llh-5" value="" style="curved=1;endArrow=none;html=1;rounded=0;endFill=0;exitX=0.496;exitY=1;exitDx=0;exitDy=0;exitPerimeter=0;" parent="1" source="7TM_OdGEtOvxObzj1Llh-1" edge="1">
          <mxGeometry width="50" height="50" relative="1" as="geometry">
            <mxPoint x="880" y="740" as="sourcePoint" />
            <mxPoint x="1060" y="320" as="targetPoint" />
            <Array as="points">
              <mxPoint x="710" y="863" />
              <mxPoint x="910" y="790" />
              <mxPoint x="1050" y="600" />
            </Array>
          </mxGeometry>
        </mxCell>
        <mxCell id="7TM_OdGEtOvxObzj1Llh-6" value="20" style="rounded=0;whiteSpace=wrap;html=1;rotation=30;fillColor=#fff2cc;strokeColor=#d6b656;" parent="1" vertex="1">
          <mxGeometry x="350" y="340" width="160" height="80" as="geometry" />
        </mxCell>
        <mxCell id="HJ6NpnuFAOiJMe3mfY7o-2" value="" style="rounded=0;whiteSpace=wrap;html=1;fillColor=#dae8fc;strokeColor=#6c8ebf;" parent="1" vertex="1">
          <mxGeometry x="880" y="300" width="180" height="20" as="geometry" />
        </mxCell>
        <mxCell id="HJ6NpnuFAOiJMe3mfY7o-3" value="" style="rounded=0;whiteSpace=wrap;html=1;fillColor=#e1d5e7;strokeColor=#9673a6;" parent="1" vertex="1">
          <mxGeometry x="850" y="330" width="200" height="20" as="geometry" />
        </mxCell>
        <mxCell id="HJ6NpnuFAOiJMe3mfY7o-6" value="9" style="ellipse;whiteSpace=wrap;html=1;aspect=fixed;fillColor=#ffe6cc;strokeColor=#d79b00;" parent="1" vertex="1">
          <mxGeometry x="690" y="330" width="100" height="100" as="geometry" />
        </mxCell>
        <mxCell id="HJ6NpnuFAOiJMe3mfY7o-8" value="23" style="rounded=0;whiteSpace=wrap;html=1;rotation=90;fillColor=#d5e8d4;strokeColor=#82b366;" parent="1" vertex="1">
          <mxGeometry x="730" y="190" width="150" height="70" as="geometry" />
        </mxCell>
        <mxCell id="HJ6NpnuFAOiJMe3mfY7o-9" value="10" style="ellipse;whiteSpace=wrap;html=1;aspect=fixed;fillColor=#ffe6cc;strokeColor=#d79b00;" parent="1" vertex="1">
          <mxGeometry x="620" y="495" width="100" height="100" as="geometry" />
        </mxCell>
        <mxCell id="HJ6NpnuFAOiJMe3mfY7o-10" value="7" style="rounded=0;whiteSpace=wrap;html=1;rotation=55;fillColor=#ffe6cc;strokeColor=#d79b00;" parent="1" vertex="1">
          <mxGeometry x="710" y="610" width="200" height="180" as="geometry" />
        </mxCell>
        <mxCell id="HJ6NpnuFAOiJMe3mfY7o-12" value="6." style="rounded=0;whiteSpace=wrap;html=1;rotation=325;fillColor=#d5e8d4;strokeColor=#82b366;" parent="1" vertex="1">
          <mxGeometry x="920" y="670" width="40" height="40" as="geometry" />
        </mxCell>
        <mxCell id="HJ6NpnuFAOiJMe3mfY7o-13" value="8" style="rounded=0;whiteSpace=wrap;html=1;rotation=325;fillColor=#d5e8d4;strokeColor=#82b366;" parent="1" vertex="1">
          <mxGeometry x="730" y="790" width="40" height="40" as="geometry" />
        </mxCell>
        <mxCell id="HJ6NpnuFAOiJMe3mfY7o-14" value="5" style="rounded=0;whiteSpace=wrap;html=1;rotation=105;fillColor=#f8cecc;strokeColor=#b85450;" parent="1" vertex="1">
          <mxGeometry x="941.46" y="601.9" width="70" height="60" as="geometry" />
        </mxCell>
        <mxCell id="HJ6NpnuFAOiJMe3mfY7o-16" value="14" style="rounded=0;whiteSpace=wrap;html=1;rotation=20;fillColor=#d5e8d4;strokeColor=#82b366;" parent="1" vertex="1">
          <mxGeometry x="240" y="730" width="120" height="80" as="geometry" />
        </mxCell>
        <mxCell id="HJ6NpnuFAOiJMe3mfY7o-18" value="13" style="rounded=0;whiteSpace=wrap;html=1;rotation=-75;fillColor=#f8cecc;strokeColor=#b85450;" parent="1" vertex="1">
          <mxGeometry x="354" y="787.93" width="60" height="60" as="geometry" />
        </mxCell>
        <mxCell id="HJ6NpnuFAOiJMe3mfY7o-19" value="16" style="rounded=0;whiteSpace=wrap;html=1;rotation=-60;fillColor=#f8cecc;strokeColor=#b85450;" parent="1" vertex="1">
          <mxGeometry x="394" y="576.9" width="60" height="90" as="geometry" />
        </mxCell>
        <mxCell id="HJ6NpnuFAOiJMe3mfY7o-20" value="30" style="rounded=0;whiteSpace=wrap;html=1;rotation=45;fillColor=#fff2cc;strokeColor=#d6b656;" parent="1" vertex="1">
          <mxGeometry x="120" y="650" width="120" height="80" as="geometry" />
        </mxCell>
        <mxCell id="HJ6NpnuFAOiJMe3mfY7o-21" value="3" style="rounded=0;whiteSpace=wrap;html=1;fillColor=#f5f5f5;strokeColor=#666666;fontColor=#333333;" parent="1" vertex="1">
          <mxGeometry x="840" y="420" width="140" height="140" as="geometry" />
        </mxCell>
        <mxCell id="HJ6NpnuFAOiJMe3mfY7o-5" value="1" style="rounded=0;whiteSpace=wrap;html=1;rotation=4;fillColor=#ffe6cc;strokeColor=#d79b00;" parent="1" vertex="1">
          <mxGeometry x="940" y="360" width="100" height="200" as="geometry" />
        </mxCell>
        <mxCell id="HJ6NpnuFAOiJMe3mfY7o-1" value="2" style="rounded=0;whiteSpace=wrap;html=1;fillColor=#ffe6cc;strokeColor=#d79b00;" parent="1" vertex="1">
          <mxGeometry x="820" y="360" width="120" height="100" as="geometry" />
        </mxCell>
        <mxCell id="HJ6NpnuFAOiJMe3mfY7o-15" value="4" style="rounded=0;whiteSpace=wrap;html=1;rotation=-175;fillColor=#d5e8d4;strokeColor=#82b366;" parent="1" vertex="1">
          <mxGeometry x="931.46" y="560" width="90" height="30" as="geometry" />
        </mxCell>
        <mxCell id="HJ6NpnuFAOiJMe3mfY7o-22" value="26" style="rounded=0;whiteSpace=wrap;html=1;rotation=-60;fillColor=#fff2cc;strokeColor=#d6b656;" parent="1" vertex="1">
          <mxGeometry x="40" y="230" width="250" height="100" as="geometry" />
        </mxCell>
        <mxCell id="HJ6NpnuFAOiJMe3mfY7o-23" value="27" style="rounded=0;whiteSpace=wrap;html=1;rotation=75;fillColor=#f8cecc;strokeColor=#b85450;" parent="1" vertex="1">
          <mxGeometry x="20" y="520" width="120" height="30" as="geometry" />
        </mxCell>
        <mxCell id="HJ6NpnuFAOiJMe3mfY7o-24" value="28" style="rounded=0;whiteSpace=wrap;html=1;rotation=45;fillColor=#f8cecc;strokeColor=#b85450;" parent="1" vertex="1">
          <mxGeometry x="90" y="600" width="50" height="50" as="geometry" />
        </mxCell>
        <mxCell id="HJ6NpnuFAOiJMe3mfY7o-26" value="17" style="rounded=0;whiteSpace=wrap;html=1;rotation=300;fillColor=#fff2cc;strokeColor=#d6b656;" parent="1" vertex="1">
          <mxGeometry x="410" y="495" width="140" height="80" as="geometry" />
        </mxCell>
        <mxCell id="HJ6NpnuFAOiJMe3mfY7o-27" value="18" style="rounded=0;whiteSpace=wrap;html=1;rotation=30;fillColor=#f8cecc;strokeColor=#b85450;" parent="1" vertex="1">
          <mxGeometry x="504" y="410" width="60" height="60" as="geometry" />
        </mxCell>
        <mxCell id="HJ6NpnuFAOiJMe3mfY7o-28" value="21" style="rounded=0;whiteSpace=wrap;html=1;rotation=300;fillColor=#fff2cc;strokeColor=#d6b656;" parent="1" vertex="1">
          <mxGeometry x="394" y="230" width="160" height="80" as="geometry" />
        </mxCell>
        <mxCell id="HJ6NpnuFAOiJMe3mfY7o-29" value="19" style="ellipse;whiteSpace=wrap;html=1;aspect=fixed;fillColor=#ffe6cc;strokeColor=#d79b00;" parent="1" vertex="1">
          <mxGeometry x="310" y="450" width="80" height="80" as="geometry" />
        </mxCell>
        <mxCell id="HJ6NpnuFAOiJMe3mfY7o-30" value="22" style="ellipse;whiteSpace=wrap;html=1;aspect=fixed;fillColor=#ffe6cc;strokeColor=#d79b00;" parent="1" vertex="1">
          <mxGeometry x="520" y="280" width="80" height="80" as="geometry" />
        </mxCell>
        <mxCell id="HJ6NpnuFAOiJMe3mfY7o-33" value="" style="endArrow=none;html=1;rounded=0;entryX=0.457;entryY=0.003;entryDx=0;entryDy=0;entryPerimeter=0;" parent="1" target="HJ6NpnuFAOiJMe3mfY7o-32" edge="1">
          <mxGeometry width="50" height="50" relative="1" as="geometry">
            <mxPoint x="413.56" y="42.44" as="sourcePoint" />
            <mxPoint x="413" y="29.999999999999986" as="targetPoint" />
          </mxGeometry>
        </mxCell>
        <mxCell id="HJ6NpnuFAOiJMe3mfY7o-35" value="11" style="ellipse;whiteSpace=wrap;html=1;aspect=fixed;fillColor=#ffe6cc;strokeColor=#d79b00;" parent="1" vertex="1">
          <mxGeometry x="480" y="657.93" width="180" height="180" as="geometry" />
        </mxCell>
        <mxCell id="HJ6NpnuFAOiJMe3mfY7o-36" value="25" style="ellipse;whiteSpace=wrap;html=1;aspect=fixed;fillColor=#f8cecc;strokeColor=#b85450;" parent="1" vertex="1">
          <mxGeometry x="300" y="60" width="80" height="80" as="geometry" />
        </mxCell>
        <mxCell id="HJ6NpnuFAOiJMe3mfY7o-37" value="24" style="rounded=0;whiteSpace=wrap;html=1;fillColor=#f5f5f5;strokeColor=#666666;fontColor=#333333;rotation=15;" parent="1" vertex="1">
          <mxGeometry x="504" width="110" height="70" as="geometry" />
        </mxCell>
        <mxCell id="b78YxiTidQIfgBdO-1Q7-4" value="12" style="rounded=0;whiteSpace=wrap;html=1;rotation=-85;fillColor=#f8cecc;strokeColor=#b85450;" parent="1" vertex="1">
          <mxGeometry x="430" y="799.6600000000001" width="40" height="70.34" as="geometry" />
        </mxCell>
        <mxCell id="b78YxiTidQIfgBdO-1Q7-5" value="29" style="rounded=0;whiteSpace=wrap;html=1;rotation=-60;fillColor=#fff2cc;strokeColor=#d6b656;" parent="1" vertex="1">
          <mxGeometry x="220" y="370" width="120" height="80" as="geometry" />
        </mxCell>
        <mxCell id="dKPZ_JkRCLan2K27TfBz-1" value="31" style="rounded=0;whiteSpace=wrap;html=1;rotation=30;fillColor=#f8cecc;strokeColor=#b85450;" parent="1" vertex="1">
          <mxGeometry x="190" y="490" width="80" height="50" as="geometry" />
        </mxCell>
        <mxCell id="dKPZ_JkRCLan2K27TfBz-2" value="32" style="rounded=0;whiteSpace=wrap;html=1;rotation=-60;fillColor=#fff2cc;strokeColor=#d6b656;" parent="1" vertex="1">
          <mxGeometry x="339" y="215" width="150" height="20" as="geometry" />
        </mxCell>
        <mxCell id="vG42X3gjWeg6bdhdIkWt-1" value="34" style="rounded=0;whiteSpace=wrap;html=1;rotation=15;fillColor=#d5e8d4;strokeColor=#82b366;" parent="1" vertex="1">
          <mxGeometry x="670" y="435" width="50" height="50" as="geometry" />
        </mxCell>
        <mxCell id="vG42X3gjWeg6bdhdIkWt-5" value="35" style="rounded=0;whiteSpace=wrap;html=1;rotation=-90;fillColor=#f8cecc;strokeColor=#b85450;" parent="1" vertex="1">
          <mxGeometry x="690" y="20" width="40" height="200" as="geometry" />
        </mxCell>
        <mxCell id="6J6sEnOnziqoshQyqQdG-1" value="" style="rounded=0;whiteSpace=wrap;html=1;" parent="1" vertex="1">
          <mxGeometry x="740" y="-100" width="100" height="10" as="geometry" />
        </mxCell>
        <mxCell id="6J6sEnOnziqoshQyqQdG-3" value="" style="rounded=0;whiteSpace=wrap;html=1;" parent="1" vertex="1">
          <mxGeometry x="840" y="300" width="40" height="20" as="geometry" />
        </mxCell>
        <mxCell id="6J6sEnOnziqoshQyqQdG-5" value="" style="rounded=0;whiteSpace=wrap;html=1;" parent="1" vertex="1">
          <mxGeometry x="740" y="-200" width="100" height="100" as="geometry" />
        </mxCell>
        <mxCell id="6J6sEnOnziqoshQyqQdG-6" value="" style="rounded=0;whiteSpace=wrap;html=1;fillColor=#dae8fc;strokeColor=#6c8ebf;" parent="1" vertex="1">
          <mxGeometry x="400" y="-260" width="440" height="20" as="geometry" />
        </mxCell>
        <mxCell id="6J6sEnOnziqoshQyqQdG-7" value="" style="curved=1;endArrow=none;html=1;rounded=0;endFill=0;" parent="1" edge="1">
          <mxGeometry width="50" height="50" relative="1" as="geometry">
            <mxPoint x="414" y="20" as="sourcePoint" />
            <mxPoint x="414" y="-120" as="targetPoint" />
            <Array as="points">
              <mxPoint x="424" y="10" />
              <mxPoint x="404" y="-10" />
              <mxPoint x="424" y="-30" />
              <mxPoint x="404" y="-50" />
              <mxPoint x="424" y="-70" />
              <mxPoint x="404" y="-90" />
              <mxPoint x="424" y="-110" />
            </Array>
          </mxGeometry>
        </mxCell>
        <mxCell id="6J6sEnOnziqoshQyqQdG-9" value="" style="curved=1;endArrow=none;html=1;rounded=0;endFill=0;" parent="1" edge="1">
          <mxGeometry width="50" height="50" relative="1" as="geometry">
            <mxPoint x="414" y="-140" as="sourcePoint" />
            <mxPoint x="414" y="-220" as="targetPoint" />
            <Array as="points">
              <mxPoint x="424" y="-150" />
              <mxPoint x="404" y="-170" />
              <mxPoint x="424" y="-190" />
              <mxPoint x="404" y="-210" />
            </Array>
          </mxGeometry>
        </mxCell>
        <mxCell id="6J6sEnOnziqoshQyqQdG-10" value="36" style="rounded=0;whiteSpace=wrap;html=1;fillColor=#ffe6cc;strokeColor=#d79b00;rotation=-45;" parent="1" vertex="1">
          <mxGeometry x="230" y="110" width="50" height="50" as="geometry" />
        </mxCell>
      </root>
    </mxGraphModel>
  </diagram>
</mxfile>
